<svg width="35" height="34" viewBox="0 0 35 34" fill="none" xmlns="http://www.w3.org/2000/svg">
<path fill-rule="evenodd" clip-rule="evenodd" d="M17.0957 34C26.4845 34 34.0957 26.3888 34.0957 17C34.0957 7.61116 26.4845 0 17.0957 0C7.70686 0 0.0957031 7.61116 0.0957031 17C0.0957031 26.3888 7.70686 34 17.0957 34ZM23.2433 24.5474C24.4962 24.2945 26.067 23.4287 26.4628 22.3848C26.8586 21.339 26.8586 20.4483 26.7437 20.2587C26.651 20.1082 26.4317 20.0096 26.1044 19.8624C26.0192 19.8241 25.9266 19.7824 25.8271 19.7357C25.3452 19.5116 23.0013 18.4294 22.5583 18.2858C22.1236 18.1325 21.7094 18.1861 21.3813 18.619C21.3189 18.7007 21.2566 18.7824 21.1947 18.8638C20.7989 19.3838 20.417 19.8854 20.0996 20.205C19.8105 20.4924 19.3388 20.5287 18.943 20.3755C18.8999 20.3587 18.8505 20.34 18.795 20.3191C18.1684 20.0827 16.7785 19.5584 15.096 18.1593C13.677 16.9794 12.7132 15.5103 12.4343 15.0697C12.1605 14.6278 12.3966 14.3686 12.6149 14.1291C12.619 14.1247 12.623 14.1202 12.627 14.1158C12.7678 13.9532 12.9044 13.8177 13.0416 13.6816C13.1403 13.5837 13.2394 13.4854 13.3407 13.3765C13.3557 13.3603 13.3703 13.3446 13.3846 13.3293C13.5995 13.0984 13.7275 12.9609 13.8718 12.6735C14.0358 12.3766 13.9189 12.0701 13.8021 11.8441C13.7216 11.6858 13.2249 10.5599 12.7984 9.59341C12.6159 9.1798 12.4463 8.79538 12.3276 8.52845C12.0098 7.81782 11.7678 7.791 11.2859 7.77185C11.2711 7.77116 11.2562 7.77045 11.2412 7.76974C11.0888 7.76254 10.9211 7.75461 10.7363 7.75461C10.1088 7.75461 9.45468 7.927 9.0589 8.30434C9.04507 8.31754 9.03066 8.33123 9.0157 8.34544C8.50937 8.82644 7.38147 9.89789 7.38147 12.0337C7.38147 14.1737 9.00704 16.2447 9.3078 16.6279C9.31609 16.6385 9.32337 16.6477 9.32959 16.6557C9.34769 16.6779 9.3818 16.724 9.43144 16.7912C10.0456 17.6219 13.0368 21.6681 17.4973 23.3943C21.2664 24.8538 22.3861 24.7178 23.2433 24.5474Z" fill="url(#paint0_linear)"/>
<defs>
<linearGradient id="paint0_linear" x1="4.0957" y1="7.33333" x2="27.7624" y2="28.3333" gradientUnits="userSpaceOnUse">
<stop stop-color="#2688FF"/>
<stop offset="0.34375" stop-color="#005BCA"/>
<stop offset="1" stop-color="#00377A"/>
</linearGradient>
</defs>
</svg>
