<svg width="35" height="34" viewBox="0 0 35 34" fill="none" xmlns="http://www.w3.org/2000/svg">
<path fill-rule="evenodd" clip-rule="evenodd" d="M17.0469 34C26.4357 34 34.0469 26.3888 34.0469 17C34.0469 7.61116 26.4357 0 17.0469 0C7.65803 0 0.046875 7.61116 0.046875 17C0.046875 26.3888 7.65803 34 17.0469 34ZM23.1944 24.5474C24.4474 24.2945 26.0182 23.4287 26.414 22.3848C26.8097 21.339 26.8097 20.4483 26.6949 20.2587C26.6022 20.1082 26.3829 20.0096 26.0556 19.8624C25.9704 19.8241 25.8778 19.7824 25.7783 19.7357C25.2964 19.5116 22.9525 18.4294 22.5095 18.2858C22.0748 18.1325 21.6605 18.1861 21.3324 18.619C21.27 18.7007 21.2078 18.7824 21.1459 18.8638C20.75 19.3838 20.3682 19.8854 20.0508 20.205C19.7616 20.4924 19.29 20.5287 18.8942 20.3755C18.8511 20.3587 18.8016 20.34 18.7462 20.3191C18.1196 20.0827 16.7297 19.5584 15.0472 18.1593C13.6281 16.9794 12.6643 15.5103 12.3854 15.0697C12.1116 14.6278 12.3478 14.3686 12.5661 14.1291C12.5701 14.1247 12.5742 14.1202 12.5782 14.1158C12.7189 13.9532 12.8555 13.8177 12.9928 13.6816C13.0915 13.5837 13.1906 13.4854 13.2918 13.3765C13.3069 13.3603 13.3215 13.3446 13.3357 13.3293C13.5507 13.0984 13.6787 12.9609 13.823 12.6735C13.987 12.3766 13.8701 12.0701 13.7532 11.8441C13.6728 11.6858 13.176 10.5599 12.7496 9.59341C12.567 9.1798 12.3974 8.79538 12.2788 8.52845C11.961 7.81782 11.719 7.791 11.2371 7.77185C11.2223 7.77116 11.2074 7.77045 11.1923 7.76974C11.04 7.76254 10.8723 7.75461 10.6875 7.75461C10.06 7.75461 9.40585 7.927 9.01008 8.30434C8.99625 8.31754 8.98183 8.33123 8.96687 8.34544C8.46054 8.82644 7.33264 9.89789 7.33264 12.0337C7.33264 14.1737 8.95821 16.2447 9.25898 16.6279C9.26726 16.6385 9.27455 16.6477 9.28076 16.6557C9.29886 16.6779 9.33297 16.724 9.38261 16.7912C9.99673 17.6219 12.988 21.6681 17.4485 23.3943C21.2176 24.8538 22.3373 24.7178 23.1944 24.5474Z" fill="url(#paint0_linear)"/>
<defs>
<linearGradient id="paint0_linear" x1="4.04688" y1="7.33333" x2="27.7135" y2="28.3333" gradientUnits="userSpaceOnUse">
<stop stop-color="#62A9FF"/>
<stop offset="0.34375" stop-color="#338BF8"/>
<stop offset="1" stop-color="#1D77E5"/>
</linearGradient>
</defs>
</svg>
