<svg width="80" height="80" viewBox="0 0 80 80" fill="none" xmlns="http://www.w3.org/2000/svg">
<circle cx="40" cy="40" r="40" fill="#1D77E5"/>
<g filter="url(#filter0_d)">
<path d="M23.997 27.3321L39.9995 20.5431L56.0062 27.3338C56.0082 27.4589 56.0105 27.6188 56.0123 27.8104C56.0171 28.3238 56.0191 29.0641 56.0074 29.9701C55.9841 31.7827 55.9063 34.255 55.6887 36.8965C55.471 39.54 55.1143 42.3413 54.5361 44.8159C53.9542 47.3062 53.1624 49.4003 52.1126 50.6834C49.9096 53.3759 46.8333 55.7181 44.2871 57.3949C43.0175 58.231 41.8872 58.8967 41.0749 59.3532C40.6689 59.5813 40.3427 59.7569 40.1187 59.8752C40.0781 59.8966 40.0409 59.9161 40.0072 59.9337C39.9583 59.9066 39.902 59.8753 39.8388 59.84C39.5808 59.6957 39.2074 59.4843 38.7473 59.2164C37.8268 58.6804 36.5609 57.9192 35.1789 57.0186C32.4002 55.2077 29.2066 52.8673 27.3835 50.6799C26.5334 49.6599 25.8636 47.7102 25.3601 45.2513C24.8623 42.8199 24.544 39.9842 24.3416 37.2753C24.1395 34.5686 24.0539 32.0004 24.0189 30.1079C24.0014 29.162 23.9966 28.3857 23.9961 27.8462C23.9959 27.6384 23.9964 27.4657 23.997 27.3321Z" stroke="white"/>
<path d="M40 20L56 27.5L55 41.5H40V20Z" fill="white"/>
<path d="M24.5 41.5H40V60L30 53L26 48.5L24.5 41.5Z" fill="white"/>
</g>
<defs>
<filter id="filter0_d" x="19.4961" y="20" width="41.02" height="48.5" filterUnits="userSpaceOnUse" color-interpolation-filters="sRGB">
<feFlood flood-opacity="0" result="BackgroundImageFix"/>
<feColorMatrix in="SourceAlpha" type="matrix" values="0 0 0 0 0 0 0 0 0 0 0 0 0 0 0 0 0 0 127 0"/>
<feOffset dy="4"/>
<feGaussianBlur stdDeviation="2"/>
<feColorMatrix type="matrix" values="0 0 0 0 0 0 0 0 0 0 0 0 0 0 0 0 0 0 0.25 0"/>
<feBlend mode="normal" in2="BackgroundImageFix" result="effect1_dropShadow"/>
<feBlend mode="normal" in="SourceGraphic" in2="effect1_dropShadow" result="shape"/>
</filter>
</defs>
</svg>
