<svg width="42" height="49" viewBox="0 0 42 49" fill="none" xmlns="http://www.w3.org/2000/svg">
<g filter="url(#filter0_d)">
<path d="M4.99703 7.33208L20.9995 0.543135L37.0062 7.33383C37.0082 7.45891 37.0105 7.61883 37.0123 7.81039C37.0171 8.32376 37.0191 9.06415 37.0074 9.97013C36.9841 11.7827 36.9063 14.255 36.6887 16.8965C36.471 19.54 36.1143 22.3413 35.5361 24.8159C34.9542 27.3062 34.1624 29.4003 33.1126 30.6834C30.9096 33.3759 27.8333 35.7181 25.2871 37.3949C24.0175 38.231 22.8872 38.8967 22.0749 39.3532C21.6689 39.5813 21.3427 39.7569 21.1187 39.8752C21.0781 39.8966 21.0409 39.9161 21.0072 39.9337C20.9583 39.9066 20.902 39.8753 20.8388 39.84C20.5808 39.6957 20.2074 39.4843 19.7473 39.2164C18.8268 38.6804 17.5609 37.9192 16.1789 37.0186C13.4002 35.2077 10.2066 32.8673 8.38349 30.6799C7.53342 29.6599 6.86363 27.7102 6.36011 25.2513C5.86225 22.8199 5.54395 19.9842 5.34162 17.2753C5.13945 14.5686 5.05387 12.0004 5.01889 10.1079C5.0014 9.16204 4.99657 8.3857 4.9961 7.84625C4.99592 7.63838 4.99639 7.4657 4.99703 7.33208Z" stroke="white"/>
<path d="M21 0L37 7.5L36 21.5H21V0Z" fill="white"/>
<path d="M5.5 21.5H21V40L11 33L7 28.5L5.5 21.5Z" fill="white"/>
</g>
<defs>
<filter id="filter0_d" x="0.496094" y="0" width="41.02" height="48.5" filterUnits="userSpaceOnUse" color-interpolation-filters="sRGB">
<feFlood flood-opacity="0" result="BackgroundImageFix"/>
<feColorMatrix in="SourceAlpha" type="matrix" values="0 0 0 0 0 0 0 0 0 0 0 0 0 0 0 0 0 0 127 0"/>
<feOffset dy="4"/>
<feGaussianBlur stdDeviation="2"/>
<feColorMatrix type="matrix" values="0 0 0 0 0 0 0 0 0 0 0 0 0 0 0 0 0 0 0.25 0"/>
<feBlend mode="normal" in2="BackgroundImageFix" result="effect1_dropShadow"/>
<feBlend mode="normal" in="SourceGraphic" in2="effect1_dropShadow" result="shape"/>
</filter>
</defs>
</svg>
