<svg width="80" height="80" viewBox="0 0 80 80" fill="none" xmlns="http://www.w3.org/2000/svg">
<circle cx="40" cy="40" r="40" fill="#1D77E5"/>
<g clip-path="url(#clip0)" filter="url(#filter0_d)">
<path d="M42.923 16.0483H36.0767C33.0518 16.0483 30.5996 18.4747 30.5996 21.4677V58.5322C30.5996 61.5252 33.0518 63.9516 36.0767 63.9516H42.923C45.9478 63.9516 48.4 61.5252 48.4 58.5322V21.4677C48.4 18.4747 45.9478 16.0483 42.923 16.0483Z" stroke="white"/>
<mask id="mask0" mask-type="alpha" maskUnits="userSpaceOnUse" x="30" y="16" width="19" height="48">
<path d="M42.9719 16H36.0278C33.0029 16 30.5508 18.4263 30.5508 21.4194V58.5806C30.5508 61.5737 33.0029 64 36.0278 64H42.9719C45.9968 64 48.449 61.5737 48.449 58.5806V21.4194C48.449 18.4263 45.9968 16 42.9719 16Z" fill="white"/>
</mask>
<g mask="url(#mask0)">
<path d="M30.5508 30.9516L39.4999 16L48.449 30.9516" stroke="white" stroke-linecap="square"/>
<path d="M30.5508 27.081L39.4999 12.1294L48.449 27.081" stroke="white" stroke-linecap="square"/>
<path d="M30.5508 23.2099L39.4999 8.2583L48.449 23.2099" stroke="white" stroke-linecap="square"/>
<path d="M30.5508 34.8227L39.4999 19.8711L48.449 34.8227" stroke="white" stroke-linecap="square"/>
<path d="M30.5508 38.6938L39.4999 23.7422L48.449 38.6938" stroke="white" stroke-linecap="square"/>
<path d="M30.5508 42.5649L39.4999 27.6133L48.449 42.5649" stroke="white" stroke-linecap="square"/>
<path d="M30.5508 46.436L39.4999 31.4844L48.449 46.436" stroke="white" stroke-linecap="square"/>
<path d="M30.5508 50.3066L39.4999 35.355L48.449 50.3066" stroke="white" stroke-linecap="square"/>
<path d="M30.5508 54.1777L39.4999 39.2261L48.449 54.1777" stroke="white" stroke-linecap="square"/>
<path d="M30.5508 58.0488L39.4999 43.0972L48.449 58.0488" stroke="white" stroke-linecap="square"/>
<path d="M30.5508 61.9194L39.4999 46.9678L48.449 61.9194" stroke="white" stroke-linecap="square"/>
<path d="M30.5508 65.7905L39.4999 50.8389L48.449 65.7905" stroke="white" stroke-linecap="square"/>
<path d="M30.5508 69.6616L39.4999 54.71L48.449 69.6616" stroke="white" stroke-linecap="square"/>
<path d="M30.5508 73.5327L39.4999 58.5811L48.449 73.5327" stroke="white" stroke-linecap="square"/>
<path d="M30.5508 76.436L39.4999 61.4844L48.449 76.436" stroke="white" stroke-linecap="square"/>
</g>
<path d="M26.9809 38.7905H19.2544V43.1454H26.9809V38.7905Z" stroke="white"/>
<path d="M26.981 36.4678H30.502V45.4678H26.981V36.4678Z" stroke="white"/>
<path d="M52.0191 38.7905H59.7456V43.1454H52.0191V38.7905Z" stroke="white"/>
<path d="M52.019 36.4678H48.498V45.4678H52.019V36.4678Z" stroke="white"/>
<path d="M21.7465 24.6129L19.1863 23.188L19.5699 22.5132L24.038 25L19.5699 27.4869L19.1863 26.8121L21.7465 25.3871H15V24.6129H21.7465Z" fill="white"/>
<path d="M57.8794 55.3871L60.4397 56.812L60.0561 57.4868L55.588 55L60.0561 52.5131L60.4397 53.1879L57.8794 54.6129H64.626V55.3871H57.8794Z" fill="white"/>
</g>
<defs>
<filter id="filter0_d" x="11" y="16" width="57" height="56" filterUnits="userSpaceOnUse" color-interpolation-filters="sRGB">
<feFlood flood-opacity="0" result="BackgroundImageFix"/>
<feColorMatrix in="SourceAlpha" type="matrix" values="0 0 0 0 0 0 0 0 0 0 0 0 0 0 0 0 0 0 127 0"/>
<feOffset dy="4"/>
<feGaussianBlur stdDeviation="2"/>
<feColorMatrix type="matrix" values="0 0 0 0 0 0 0 0 0 0 0 0 0 0 0 0 0 0 0.25 0"/>
<feBlend mode="normal" in2="BackgroundImageFix" result="effect1_dropShadow"/>
<feBlend mode="normal" in="SourceGraphic" in2="effect1_dropShadow" result="shape"/>
</filter>
<clipPath id="clip0">
<rect width="49" height="48" fill="white" transform="translate(15 16)"/>
</clipPath>
</defs>
</svg>
