<svg width="52" height="44" viewBox="0 0 52 44" fill="none" xmlns="http://www.w3.org/2000/svg">
<mask id="path-1-inside-1" fill="white">
<path fill-rule="evenodd" clip-rule="evenodd" d="M26.7168 34.0375C25.2689 34.657 23.6745 35 22 35C19.69 35 17.5325 34.3473 15.7018 33.2163C14.0844 34.3408 12.1192 35 10 35C4.47715 35 0 30.5228 0 25C0 19.4772 4.47715 15 10 15C10.947 15 11.8632 15.1316 12.7314 15.3776C14.9323 12.7045 18.2671 11 22 11C26.4419 11 30.3202 13.4134 32.3949 17.0006C32.4299 17.0002 32.4649 17 32.5 17C37.7467 17 42 21.2533 42 26.5C42 31.7467 37.7467 36 32.5 36C30.3238 36 28.3186 35.2683 26.7168 34.0375Z"/>
</mask>
<path fill-rule="evenodd" clip-rule="evenodd" d="M26.7168 34.0375C25.2689 34.657 23.6745 35 22 35C19.69 35 17.5325 34.3473 15.7018 33.2163C14.0844 34.3408 12.1192 35 10 35C4.47715 35 0 30.5228 0 25C0 19.4772 4.47715 15 10 15C10.947 15 11.8632 15.1316 12.7314 15.3776C14.9323 12.7045 18.2671 11 22 11C26.4419 11 30.3202 13.4134 32.3949 17.0006C32.4299 17.0002 32.4649 17 32.5 17C37.7467 17 42 21.2533 42 26.5C42 31.7467 37.7467 36 32.5 36C30.3238 36 28.3186 35.2683 26.7168 34.0375Z" fill="white"/>
<path d="M26.7168 34.0375L27.9354 32.4516L27.0067 31.738L25.93 32.1987L26.7168 34.0375ZM15.7018 33.2163L16.753 31.5148L15.6371 30.8254L14.5601 31.5742L15.7018 33.2163ZM12.7314 15.3776L12.1862 17.3019L13.4443 17.6583L14.2754 16.6488L12.7314 15.3776ZM32.3949 17.0006L30.6637 18.0019L31.2485 19.0131L32.4166 19.0005L32.3949 17.0006ZM22 37C23.9499 37 25.8116 36.6002 27.5036 35.8762L25.93 32.1987C24.7262 32.7138 23.3991 33 22 33V37ZM14.6506 34.9178C16.7881 36.2383 19.3082 37 22 37V33C20.0719 33 18.2769 32.4563 16.753 31.5148L14.6506 34.9178ZM10 37C12.5403 37 14.9018 36.2084 16.8435 34.8584L14.5601 31.5742C13.267 32.4732 11.698 33 10 33V37ZM-2 25C-2 31.6274 3.37258 37 10 37V33C5.58172 33 2 29.4183 2 25H-2ZM10 13C3.37258 13 -2 18.3726 -2 25H2C2 20.5817 5.58172 17 10 17V13ZM13.2765 13.4533C12.2327 13.1576 11.1331 13 10 13V17C10.7608 17 11.4937 17.1057 12.1862 17.3019L13.2765 13.4533ZM22 9C17.6442 9 13.7519 10.9916 11.1874 14.1064L14.2754 16.6488C16.1127 14.4173 18.89 13 22 13V9ZM34.1262 15.9992C31.7087 11.8195 27.1848 9 22 9V13C25.6991 13 28.9317 15.0074 30.6637 18.0019L34.1262 15.9992ZM32.4166 19.0005C32.4444 19.0002 32.4722 19 32.5 19V15C32.4577 15 32.4154 15.0002 32.3733 15.0007L32.4166 19.0005ZM32.5 19C36.6421 19 40 22.3579 40 26.5H44C44 20.1487 38.8513 15 32.5 15V19ZM40 26.5C40 30.6421 36.6421 34 32.5 34V38C38.8513 38 44 32.8513 44 26.5H40ZM32.5 34C30.7798 34 29.2 33.4233 27.9354 32.4516L25.4982 35.6234C27.4372 37.1133 29.8679 38 32.5 38V34Z" fill="white" mask="url(#path-1-inside-1)"/>
<line x1="14.4101" y1="0.713909" x2="44.4101" y2="43.7139" stroke="white"/>
<circle cx="34.5" cy="19.5" r="11" stroke="white"/>
<line x1="34.5" y1="2" x2="34.5" y2="7" stroke="white"/>
<line x1="34.5" y1="32" x2="34.5" y2="35" stroke="white"/>
<line x1="25.683" y1="4.09424" x2="28.183" y2="8.42437" stroke="white"/>
<line x1="40.683" y1="30.0752" x2="43.183" y2="34.4053" stroke="white"/>
<line x1="21.2492" y1="11.5665" x2="23.4236" y2="12.8165" stroke="white"/>
<line x1="45.0752" y1="25.317" x2="49.4053" y2="27.817" stroke="white"/>
<line x1="16.5" y1="19" x2="21.5" y2="19" stroke="white"/>
<line x1="46.5" y1="19" x2="51.5" y2="19" stroke="white"/>
<line x1="18.5942" y1="27.817" x2="22.9244" y2="25.317" stroke="white"/>
<line x1="44.5752" y1="12.817" x2="48.9053" y2="10.317" stroke="white"/>
<line x1="24.0494" y1="33.9049" x2="26.7726" y2="29.7116" stroke="white"/>
<line x1="40.3888" y1="8.74477" x2="43.112" y2="4.55142" stroke="white"/>
</svg>
