<svg width="80" height="80" viewBox="0 0 80 80" fill="none" xmlns="http://www.w3.org/2000/svg">
<circle cx="40" cy="40" r="40" fill="#231F20"/>
<path d="M28.5 17V60.5L64 60H58.5L28.5 17Z" fill="#231F20"/>
<mask id="path-3-inside-1" fill="white">
<path fill-rule="evenodd" clip-rule="evenodd" d="M40.7168 50.0375C39.2689 50.657 37.6745 51 36 51C33.69 51 31.5325 50.3473 29.7018 49.2163C28.0844 50.3408 26.1192 51 24 51C18.4772 51 14 46.5228 14 41C14 35.4772 18.4772 31 24 31C24.947 31 25.8632 31.1316 26.7314 31.3776C28.9323 28.7045 32.2671 27 36 27C40.4419 27 44.3202 29.4134 46.3949 33.0006C46.4299 33.0002 46.4649 33 46.5 33C51.7467 33 56 37.2533 56 42.5C56 47.7467 51.7467 52 46.5 52C44.3238 52 42.3186 51.2683 40.7168 50.0375Z"/>
</mask>
<path fill-rule="evenodd" clip-rule="evenodd" d="M40.7168 50.0375C39.2689 50.657 37.6745 51 36 51C33.69 51 31.5325 50.3473 29.7018 49.2163C28.0844 50.3408 26.1192 51 24 51C18.4772 51 14 46.5228 14 41C14 35.4772 18.4772 31 24 31C24.947 31 25.8632 31.1316 26.7314 31.3776C28.9323 28.7045 32.2671 27 36 27C40.4419 27 44.3202 29.4134 46.3949 33.0006C46.4299 33.0002 46.4649 33 46.5 33C51.7467 33 56 37.2533 56 42.5C56 47.7467 51.7467 52 46.5 52C44.3238 52 42.3186 51.2683 40.7168 50.0375Z" fill="white"/>
<path d="M40.7168 50.0375L41.9354 48.4516L41.0067 47.738L39.93 48.1987L40.7168 50.0375ZM29.7018 49.2163L30.753 47.5148L29.6371 46.8254L28.5601 47.5742L29.7018 49.2163ZM26.7314 31.3776L26.1862 33.3019L27.4443 33.6583L28.2754 32.6488L26.7314 31.3776ZM46.3949 33.0006L44.6637 34.0019L45.2485 35.0131L46.4166 35.0005L46.3949 33.0006ZM36 53C37.9499 53 39.8116 52.6002 41.5036 51.8762L39.93 48.1987C38.7262 48.7138 37.3991 49 36 49V53ZM28.6506 50.9178C30.7881 52.2383 33.3082 53 36 53V49C34.0719 49 32.2769 48.4563 30.753 47.5148L28.6506 50.9178ZM24 53C26.5403 53 28.9018 52.2084 30.8435 50.8584L28.5601 47.5742C27.267 48.4732 25.698 49 24 49V53ZM12 41C12 47.6274 17.3726 53 24 53V49C19.5817 49 16 45.4183 16 41H12ZM24 29C17.3726 29 12 34.3726 12 41H16C16 36.5817 19.5817 33 24 33V29ZM27.2765 29.4533C26.2327 29.1576 25.1331 29 24 29V33C24.7608 33 25.4937 33.1057 26.1862 33.3019L27.2765 29.4533ZM36 25C31.6442 25 27.7519 26.9916 25.1874 30.1064L28.2754 32.6488C30.1127 30.4173 32.89 29 36 29V25ZM48.1262 31.9992C45.7087 27.8195 41.1848 25 36 25V29C39.6991 29 42.9317 31.0074 44.6637 34.0019L48.1262 31.9992ZM46.4166 35.0005C46.4444 35.0002 46.4722 35 46.5 35V31C46.4577 31 46.4154 31.0002 46.3733 31.0007L46.4166 35.0005ZM46.5 35C50.6421 35 54 38.3579 54 42.5H58C58 36.1487 52.8513 31 46.5 31V35ZM54 42.5C54 46.6421 50.6421 50 46.5 50V54C52.8513 54 58 48.8513 58 42.5H54ZM46.5 50C44.7798 50 43.2 49.4233 41.9354 48.4516L39.4982 51.6234C41.4372 53.1133 43.8679 54 46.5 54V50Z" fill="white" mask="url(#path-3-inside-1)"/>
<path d="M28.5 17H64V60H58.5L28.5 17Z" fill="#231F20"/>
<line x1="28.4101" y1="16.7139" x2="58.4101" y2="59.7139" stroke="white"/>
<circle cx="48.5" cy="35.5" r="11" stroke="white"/>
<line x1="48.5" y1="18" x2="48.5" y2="23" stroke="white"/>
<line x1="48.5" y1="48" x2="48.5" y2="51" stroke="white"/>
<line x1="39.683" y1="20.0942" x2="42.183" y2="24.4244" stroke="white"/>
<line x1="54.683" y1="46.0752" x2="57.183" y2="50.4053" stroke="white"/>
<line x1="35.2492" y1="27.5665" x2="37.4236" y2="28.8165" stroke="white"/>
<line x1="59.0752" y1="41.317" x2="63.4053" y2="43.817" stroke="white"/>
<line x1="30.5" y1="35" x2="35.5" y2="35" stroke="white"/>
<line x1="60.5" y1="35" x2="65.5" y2="35" stroke="white"/>
<line x1="32.5942" y1="43.817" x2="36.9244" y2="41.317" stroke="white"/>
<line x1="58.5752" y1="28.817" x2="62.9053" y2="26.317" stroke="white"/>
<line x1="38.0494" y1="49.9049" x2="40.7726" y2="45.7116" stroke="white"/>
<line x1="54.3888" y1="24.7448" x2="57.112" y2="20.5514" stroke="white"/>
</svg>
