<svg width="80" height="80" viewBox="0 0 80 80" fill="none" xmlns="http://www.w3.org/2000/svg">
<circle cx="40" cy="40" r="40" fill="#1D77E5"/>
<g filter="url(#filter0_d)">
<path d="M24.7233 60.804L28.8536 37.8579L33.2133 40.9096L33.3088 40.9765L33.424 40.9942L39.924 41.9942L40.0235 42.0095L40.1213 41.9851L46.1213 40.4851L46.1934 40.467L46.2572 40.4287L50.6096 37.8174L53.8401 60.8927L45.2966 54.5975L44.9227 54.3219L44.6204 54.6746L39 61.2317L33.3796 54.6746L33.0694 54.3126L32.693 54.6053L24.7233 60.804Z" stroke="white"/>
<circle cx="39.5" cy="32.5" r="16" fill="white" stroke="white"/>
<path d="M40.78 26.58V40H39.5V29.34C39.5 29.02 39.5133 28.78 39.54 28.62C39.2733 28.7933 39.1067 28.9 39.04 28.94L37 30.22L36.42 29.2L40.44 26.58H40.78Z" fill="#1D77E5"/>
</g>
<defs>
<filter id="filter0_d" x="19" y="16" width="41" height="54" filterUnits="userSpaceOnUse" color-interpolation-filters="sRGB">
<feFlood flood-opacity="0" result="BackgroundImageFix"/>
<feColorMatrix in="SourceAlpha" type="matrix" values="0 0 0 0 0 0 0 0 0 0 0 0 0 0 0 0 0 0 127 0"/>
<feOffset dy="4"/>
<feGaussianBlur stdDeviation="2"/>
<feColorMatrix type="matrix" values="0 0 0 0 0 0 0 0 0 0 0 0 0 0 0 0 0 0 0.25 0"/>
<feBlend mode="normal" in2="BackgroundImageFix" result="effect1_dropShadow"/>
<feBlend mode="normal" in="SourceGraphic" in2="effect1_dropShadow" result="shape"/>
</filter>
</defs>
</svg>
