<svg width="40" height="42" viewBox="0 0 40 42" fill="none" xmlns="http://www.w3.org/2000/svg">
<path d="M36 0H4C1.79086 0 0 1.79086 0 4V37.3333C0 39.5425 1.79086 41.3333 4 41.3333H19.7C19.8657 41.3333 20 41.199 20 41.0333V25.2722C20 25.1065 19.8657 24.9722 19.7 24.9722H15.3C15.1343 24.9722 15 24.8379 15 24.6722V19.2444C15 19.0788 15.1343 18.9444 15.3 18.9444H19.7C19.8657 18.9444 20 18.8101 20 18.6444V11.75C20 9.54086 21.7909 7.75 24 7.75H32.2C32.3657 7.75 32.5 7.88431 32.5 8.05V13.4778C32.5 13.6435 32.3657 13.7778 32.2 13.7778H27.6667C27.1144 13.7778 26.6667 14.2255 26.6667 14.7778V18.9444H32.1557C32.3377 18.9444 32.4778 19.1052 32.4528 19.2855L31.7025 24.7133C31.6819 24.8617 31.5551 24.9722 31.4053 24.9722H26.9667C26.801 24.9722 26.6667 25.1065 26.6667 25.2722V41.0333C26.6667 41.199 26.801 41.3333 26.9667 41.3333H36C38.2091 41.3333 40 39.5425 40 37.3333V4C40 1.79086 38.2091 0 36 0Z" fill="url(#paint0_linear)"/>
<defs>
<linearGradient id="paint0_linear" x1="3.12413e-07" y1="2.5" x2="36" y2="41" gradientUnits="userSpaceOnUse">
<stop stop-color="#4D9CFD"/>
<stop offset="0.520833" stop-color="#2686FB"/>
<stop offset="1" stop-color="#1D77E5"/>
</linearGradient>
</defs>
</svg>
