<svg width="247" height="65" viewBox="0 0 247 65" fill="none" xmlns="http://www.w3.org/2000/svg">
<path d="M66 0.622559L98.1539 32.7764L66 64.9303L33.8462 32.7764L66 0.622559Z" fill="#F7E461"/>
<path d="M82.9233 33.6223C82.9233 43.4359 75.3466 51.3915 66.0002 51.3915C56.6539 51.3915 49.0771 43.4359 49.0771 33.6223C49.0771 23.8086 56.6539 15.853 66.0002 15.853C75.3466 15.853 82.9233 23.8086 82.9233 33.6223Z" fill="#EFEFEF"/>
<path fill-rule="evenodd" clip-rule="evenodd" d="M66.0001 18.302C58.0061 18.302 51.5256 24.7824 51.5256 32.7764C51.5256 40.7705 58.0061 47.2509 66.0001 47.2509C73.9941 47.2509 80.4745 40.7705 80.4745 32.7764C80.4745 24.7824 73.9941 18.302 66.0001 18.302ZM45.6924 32.7764C45.6924 21.5608 54.7844 12.4688 66.0001 12.4688C77.2157 12.4688 86.3078 21.5608 86.3078 32.7764C86.3078 43.9921 77.2157 53.0841 66.0001 53.0841C54.7844 53.0841 45.6924 43.9921 45.6924 32.7764Z" fill="#1D77E5"/>
<path d="M32.1307 0.622559H55.8462L23.7155 32.7764L55.8462 64.9303H32.1307L0 32.7764L32.1307 0.622559Z" fill="#1D77E5"/>
<path d="M135.05 24.32V42H113.158V24.32H116.226V39.166H122.596V24.32H125.612V39.166H131.982V24.32H135.05ZM149.163 30.404V42H146.355V36.696C146.355 36.1067 146.372 35.656 146.407 35.344C146.112 35.708 145.766 36.0893 145.367 36.488L139.959 42.026H138.867V30.404H141.675V35.604C141.675 36.2453 141.658 36.722 141.623 37.034C141.883 36.722 142.273 36.2887 142.793 35.734L148.071 30.404H149.163ZM162.876 30.404V42H160.016V37.372H155.336V42H152.502V30.404H155.336V34.928H160.016V30.404H162.876ZM171.699 42.338C170.503 42.338 169.428 42.078 168.475 41.558C167.539 41.038 166.802 40.31 166.265 39.374C165.745 38.438 165.485 37.3807 165.485 36.202C165.485 35.0233 165.745 33.9747 166.265 33.056C166.802 32.12 167.539 31.392 168.475 30.872C169.428 30.352 170.503 30.092 171.699 30.092C172.895 30.092 173.969 30.352 174.923 30.872C175.876 31.392 176.613 32.12 177.133 33.056C177.67 33.9747 177.939 35.0233 177.939 36.202C177.939 37.3807 177.67 38.438 177.133 39.374C176.613 40.31 175.876 41.038 174.923 41.558C173.969 42.078 172.895 42.338 171.699 42.338ZM171.699 39.816C172.704 39.816 173.51 39.4867 174.117 38.828C174.741 38.152 175.053 37.2767 175.053 36.202C175.053 35.1273 174.741 34.2607 174.117 33.602C173.51 32.926 172.704 32.588 171.699 32.588C170.711 32.588 169.905 32.926 169.281 33.602C168.657 34.278 168.345 35.1447 168.345 36.202C168.345 37.2593 168.657 38.126 169.281 38.802C169.905 39.478 170.711 39.816 171.699 39.816ZM180.324 34.876H187.63V37.32H180.324V34.876ZM191.183 24.32H202.701V27.05H194.251V31.314H198.281C199.477 31.314 200.526 31.5653 201.427 32.068C202.346 32.5533 203.039 33.2033 203.507 34.018C203.993 34.8327 204.235 35.708 204.235 36.644C204.235 37.5973 203.993 38.49 203.507 39.322C203.039 40.1367 202.355 40.7867 201.453 41.272C200.552 41.7573 199.495 42 198.281 42H191.183V24.32ZM197.943 39.426C198.949 39.426 199.737 39.1833 200.309 38.698C200.881 38.1953 201.167 37.5107 201.167 36.644C201.167 35.7773 200.881 35.1013 200.309 34.616C199.737 34.1133 198.949 33.862 197.943 33.862H194.251V39.426H197.943ZM212.527 42.338C211.331 42.338 210.256 42.078 209.303 41.558C208.367 41.038 207.63 40.31 207.093 39.374C206.573 38.438 206.313 37.3807 206.313 36.202C206.313 35.0233 206.573 33.9747 207.093 33.056C207.63 32.12 208.367 31.392 209.303 30.872C210.256 30.352 211.331 30.092 212.527 30.092C213.723 30.092 214.798 30.352 215.751 30.872C216.704 31.392 217.441 32.12 217.961 33.056C218.498 33.9747 218.767 35.0233 218.767 36.202C218.767 37.3807 218.498 38.438 217.961 39.374C217.441 40.31 216.704 41.038 215.751 41.558C214.798 42.078 213.723 42.338 212.527 42.338ZM212.527 39.816C213.532 39.816 214.338 39.4867 214.945 38.828C215.569 38.152 215.881 37.2767 215.881 36.202C215.881 35.1273 215.569 34.2607 214.945 33.602C214.338 32.926 213.532 32.588 212.527 32.588C211.539 32.588 210.733 32.926 210.109 33.602C209.485 34.278 209.173 35.1447 209.173 36.202C209.173 37.2593 209.485 38.126 210.109 38.802C210.733 39.478 211.539 39.816 212.527 39.816ZM231.631 41.87V42H228.381L224.195 37.06V42H221.361V30.404H224.195V35.006L228.017 30.404H231.241V30.508L226.639 36.02L231.631 41.87ZM237.912 42.338C236.889 42.338 235.919 42.104 235 41.636C234.099 41.1507 233.362 40.4487 232.79 39.53C232.218 38.594 231.932 37.4847 231.932 36.202C231.932 34.9713 232.201 33.8967 232.738 32.978C233.293 32.042 234.038 31.3313 234.974 30.846C235.91 30.3433 236.933 30.092 238.042 30.092C239.723 30.092 241.162 30.612 242.358 31.652L240.98 33.55C240.564 33.2033 240.139 32.952 239.706 32.796C239.29 32.64 238.805 32.562 238.25 32.562C237.262 32.562 236.439 32.9 235.78 33.576C235.121 34.2347 234.792 35.11 234.792 36.202C234.792 37.3113 235.113 38.1953 235.754 38.854C236.413 39.5127 237.227 39.842 238.198 39.842C238.805 39.842 239.342 39.7467 239.81 39.556C240.278 39.3653 240.729 39.062 241.162 38.646L242.592 40.544C241.916 41.168 241.214 41.6273 240.486 41.922C239.775 42.1993 238.917 42.338 237.912 42.338Z" fill="#1D77E5"/>
</svg>
