<svg width="232" height="95" viewBox="0 0 232 95" fill="none" xmlns="http://www.w3.org/2000/svg">
<path opacity="0.8" d="M146.603 0H181L134.397 47.5L181 95H146.603L100 47.5L146.603 0Z" fill="#1D77E5"/>
<path opacity="0.7" d="M96.6027 0H131L84.3973 47.5L131 95H96.6027L50 47.5L96.6027 0Z" fill="#1D77E5"/>
<path opacity="0.6" d="M46.6027 0H81L34.3973 47.5L81 95H46.6027L0 47.5L46.6027 0Z" fill="#1D77E5"/>
<rect x="22" y="43" width="149" height="9" fill="#F0F0F0"/>
<path d="M197.603 0H232L185.397 47.5L232 95H197.603L151 47.5L197.603 0Z" fill="#1D77E5"/>
<path d="M232 95V0L182.5 47L232 95Z" fill="#1D77E5"/>
</svg>
