<svg width="1440" height="750" viewBox="0 0 1440 750" fill="none" xmlns="http://www.w3.org/2000/svg">
<rect width="1440" height="750" fill="#F7E461"/>
<path d="M149.272 81.48V121.16H129.56V81.48H125.336V121.16H105.624V81.48H101.4V125H153.496V81.48H149.272ZM187.203 96.712L171.843 113.544C170.755 114.76 169.667 115.976 168.643 117.256C168.707 116.04 168.771 114.76 168.771 113.48V96.712H164.867V125H166.275L182.083 107.656C183.043 106.632 183.939 105.544 184.771 104.456C184.707 105.544 184.707 106.632 184.707 107.72V125H188.611V96.712H187.203ZM218.265 96.712V108.936H202.521V96.712H198.617V125H202.521V112.52H218.265V125H222.169V96.712H218.265ZM244.724 125.704C253.364 125.704 259.444 119.56 259.444 110.856C259.444 102.152 253.364 96.008 244.724 96.008C236.212 96.008 230.132 102.152 230.132 110.856C230.132 119.56 236.212 125.704 244.724 125.704ZM244.724 122.056C238.452 122.056 234.1 117.448 234.1 110.856C234.1 104.328 238.452 99.656 244.724 99.656C251.124 99.656 255.476 104.328 255.476 110.856C255.476 117.448 251.06 122.056 244.724 122.056ZM266.663 112.072H283.047V108.68H266.663V112.072ZM317.199 101.96C320.335 100.104 322.447 96.904 322.447 92.744C322.447 86.088 316.943 81.48 310.031 81.48H293.775V125H311.183C318.799 125 324.431 120.072 324.431 112.904C324.431 108.04 321.551 103.816 317.199 101.96ZM297.999 85.32H309.775C314.575 85.32 318.287 88.136 318.287 92.744C318.287 97.672 315.087 100.424 309.903 100.424H297.999V85.32ZM310.991 121.16H297.999V104.264H311.311C316.495 104.264 320.207 107.656 320.207 112.648C320.207 117.896 316.303 121.16 310.991 121.16ZM345.411 125.704C354.051 125.704 360.131 119.56 360.131 110.856C360.131 102.152 354.051 96.008 345.411 96.008C336.899 96.008 330.819 102.152 330.819 110.856C330.819 119.56 336.899 125.704 345.411 125.704ZM345.411 122.056C339.139 122.056 334.787 117.448 334.787 110.856C334.787 104.328 339.139 99.656 345.411 99.656C351.811 99.656 356.163 104.328 356.163 110.856C356.163 117.448 351.747 122.056 345.411 122.056ZM363.227 125H367.579L373.467 116.808C374.363 115.592 375.067 114.44 375.963 112.968C376.795 114.44 377.499 115.528 378.395 116.744L384.219 125H388.699V124.872L378.203 110.088L387.675 96.84V96.712H383.323L378.267 103.752C377.562 104.776 376.731 105.992 375.963 107.272C375.195 105.928 374.491 104.84 373.723 103.816L368.731 96.712H364.251V96.84L373.723 110.088L363.227 124.872V125ZM411.914 89.288C413.642 89.288 414.858 88.072 414.858 86.472C414.858 84.808 413.706 83.528 411.914 83.528C410.122 83.528 408.97 84.808 408.97 86.472C408.97 88.008 410.122 89.288 411.914 89.288ZM409.93 125H413.834V96.712H409.93V125ZM437.565 96.136C432.765 96.136 429.309 98.504 427.645 101.512L426.749 96.712H423.805V125H427.709V109.768C427.709 103.88 431.485 99.784 437.181 99.784C441.917 99.784 443.709 102.856 443.709 107.656V125H447.613V107.72C447.613 100.36 444.157 96.136 437.565 96.136ZM466.152 125.512C469.096 125.512 471.72 124.424 473.832 122.824L472.104 119.88C470.312 121.16 468.52 121.8 466.536 121.8C464.04 121.8 462.568 120.584 462.568 117V100.168H472.68V96.712H462.568V87.304H458.664V96.712H453.16V99.912L458.664 100.168V117C458.664 122.824 461.544 125.512 466.152 125.512ZM491.648 96.136C487.68 96.136 484.992 97.928 483.392 100.872L482.624 96.712H479.68V125H483.584V108.616C483.584 103.112 486.72 99.848 491.328 99.848C492.928 99.848 494.016 100.168 495.104 100.552L496.256 97.096C494.976 96.52 493.44 96.136 491.648 96.136ZM513.099 125.704C521.739 125.704 527.819 119.56 527.819 110.856C527.819 102.152 521.739 96.008 513.099 96.008C504.587 96.008 498.507 102.152 498.507 110.856C498.507 119.56 504.587 125.704 513.099 125.704ZM513.099 122.056C506.827 122.056 502.475 117.448 502.475 110.856C502.475 104.328 506.827 99.656 513.099 99.656C519.499 99.656 523.851 104.328 523.851 110.856C523.851 117.448 519.435 122.056 513.099 122.056Z" fill="#231F20"/>
<path d="M759.877 357V392.43H744.352V357H737.002V392.43H721.477V357H714V399.193H767.354V357H759.877Z" fill="#1D77E5"/>
<path d="M799.089 371.519L786.225 384.24C785.275 385.232 784.324 386.225 783.374 387.342C783.501 386.225 783.501 385.108 783.501 383.929V371.519H776.657V399.255H779.318L792.498 386.039C793.386 385.17 794.209 384.302 795.033 383.309C794.906 384.426 794.906 385.481 794.906 386.535V399.193H801.75V371.519H799.089Z" fill="#1D77E5"/>
<path d="M828.2 371.519V382.316H816.794V371.519H809.887V399.193H816.794V388.149H828.2V399.193H835.17V371.519H828.2Z" fill="#1D77E5"/>
<path d="M856.673 400C865.544 400 871.881 393.919 871.881 385.356C871.881 376.794 865.544 370.775 856.673 370.775C847.802 370.775 841.528 376.794 841.528 385.356C841.528 393.919 847.802 400 856.673 400ZM856.673 393.981C851.857 393.981 848.499 390.444 848.499 385.356C848.499 380.268 851.857 376.732 856.673 376.732C861.552 376.732 864.847 380.268 864.847 385.356C864.847 390.444 861.552 393.981 856.673 393.981Z" fill="#1D77E5"/>
<path d="M877.693 388.025H895.499V382.192H877.693V388.025Z" fill="#1D77E5"/>
<path d="M929.189 377.104C932.294 375.18 934.322 372.078 934.322 368.045C934.322 361.468 928.872 357 921.332 357H904.16V399.193H922.536C930.456 399.193 936.033 394.54 936.033 387.528C936.033 382.688 933.308 378.903 929.189 377.104ZM911.573 363.019H920.064C924.056 363.019 926.781 365.128 926.781 368.603C926.781 372.326 924.437 374.498 920.191 374.498H911.573V363.019ZM921.332 393.175H911.573V380.455H921.585C925.704 380.455 928.492 382.937 928.492 386.784C928.492 390.755 925.577 393.175 921.332 393.175Z" fill="#1D77E5"/>
<path d="M956.177 400C965.048 400 971.385 393.919 971.385 385.356C971.385 376.794 965.048 370.775 956.177 370.775C947.306 370.775 941.033 376.794 941.033 385.356C941.033 393.919 947.306 400 956.177 400ZM956.177 393.981C951.361 393.981 948.003 390.444 948.003 385.356C948.003 380.268 951.361 376.732 956.177 376.732C961.056 376.732 964.351 380.268 964.351 385.356C964.351 390.444 961.056 393.981 956.177 393.981Z" fill="#1D77E5"/>
<path d="M973.182 399.193H980.85L985.032 392.74C985.729 391.623 986.362 390.506 987.06 389.017C987.82 390.506 988.39 391.623 989.087 392.74L993.206 399.193H1001V399.069L991.495 384.798L1000.11 371.706V371.519H992.572L988.96 377.166L987.06 380.517C986.426 379.214 985.919 378.221 985.285 377.228L981.737 371.519H974.006V371.706L982.687 384.798L973.182 399.069V399.193Z" fill="#1D77E5"/>
<path d="M596.5 298L674 375L596.5 452L519 375L596.5 298Z" fill="white"/>
<path d="M638 375C638 398.748 619.196 418 596 418C572.804 418 554 398.748 554 375C554 351.252 572.804 332 596 332C619.196 332 638 351.252 638 375Z" fill="#F7E461"/>
<path fill-rule="evenodd" clip-rule="evenodd" d="M596.5 341.586C578.227 341.586 563.414 356.546 563.414 375C563.414 393.454 578.227 408.414 596.5 408.414C614.773 408.414 629.586 393.454 629.586 375C629.586 356.546 614.773 341.586 596.5 341.586ZM546 375C546 346.833 568.61 324 596.5 324C624.39 324 647 346.833 647 375C647 403.167 624.39 426 596.5 426C568.61 426 546 403.167 546 375Z" fill="#1D77E5"/>
<path d="M515.096 298H572L494.904 375L572 452H515.096L438 375L515.096 298Z" fill="#1D77E5"/>
</svg>
