<svg width="288" height="326" viewBox="0 0 288 326" fill="none" xmlns="http://www.w3.org/2000/svg">
<path d="M38.4367 0H62.7896L29.7953 33.5L62.7896 67H38.4367L5.44238 33.5L38.4367 0Z" fill="#1D77E5"/>
<path d="M87.6467 0H112L79.0053 33.5L112 67H87.6467L54.6523 33.5L87.6467 0Z" fill="#1D77E5"/>
<rect width="106.17" height="8.9593" transform="matrix(-0.999991 -0.00414418 -0.00410061 0.999992 106.205 29.4351)" fill="#EFEFEF"/>
<path d="M249.563 260H225.21L258.205 293L225.21 326H249.563L282.558 293L249.563 260Z" fill="#1D77E5"/>
<path d="M200.353 260H176L208.995 293L176 326H200.353L233.348 293L200.353 260Z" fill="#1D77E5"/>
<rect width="106.17" height="8.82558" transform="matrix(0.999992 -0.00408233 0.00416273 0.999991 181.794 288.996)" fill="#EFEFEF"/>
</svg>
