<svg width="935" height="542" viewBox="0 0 935 542" fill="none" xmlns="http://www.w3.org/2000/svg">
<path d="M161.151 396H107.802L180.081 469L107.802 542H161.151L233.43 469L161.151 396Z" fill="#1D77E5"/>
<path d="M53.3489 396H2.28882e-05L72.2791 469L2.28882e-05 542H53.3489L125.628 469L53.3489 396Z" fill="#1D77E5"/>
<rect x="12.6934" y="460.143" width="232.581" height="19.5233" transform="rotate(-0.236193 12.6934 460.143)" fill="#EFEFEF"/>
<path d="M773.202 0H826.551L754.272 73L826.551 146H773.202L700.923 73L773.202 0Z" fill="#1D77E5"/>
<path d="M881.005 0H934.353L862.074 73L934.353 146H881.005L808.726 73L881.005 0Z" fill="#1D77E5"/>
<rect width="232.581" height="19.5233" transform="matrix(-0.999991 -0.00412234 -0.00412234 0.999991 921.66 64.1426)" fill="#EFEFEF"/>
</svg>
