<svg width="998" height="541" viewBox="0 0 998 541" fill="none" xmlns="http://www.w3.org/2000/svg">
<path d="M913.152 395H859.803L932.082 468L859.803 541H913.152L985.431 468L913.152 395Z" fill="#1D77E5"/>
<path d="M805.349 395H752L824.279 468L752 541H805.349L877.628 468L805.349 395Z" fill="#1D77E5"/>
<rect x="764.693" y="459.143" width="232.581" height="19.5233" transform="rotate(-0.236193 764.693 459.143)" fill="#EFEFEF"/>
<path d="M84.2024 0H137.551L65.2722 73L137.551 146H84.2024L11.9233 73L84.2024 0Z" fill="#1D77E5"/>
<path d="M192.005 0H245.353L173.074 73L245.353 146H192.005L119.726 73L192.005 0Z" fill="#1D77E5"/>
<rect width="232.581" height="19.5233" transform="matrix(-0.999991 -0.00412234 -0.00412234 0.999991 232.66 64.1426)" fill="#EFEFEF"/>
</svg>
