<?xml version="1.0" encoding="utf-8"?>
<svg width="65px" height="65px" viewBox="0 0 65 65" preserveAspectRatio="xMidYMid slice" xmlns="http://www.w3.org/2000/svg" xmlns:bx="https://boxy-svg.com">
  <defs>
    <linearGradient x1="77.3431356%" y1="50%" x2="21.8112673%" y2="50%" id="lg">
      <stop stop-color="#6339F5" offset="0"/>
      <stop stop-color="#3D3F55" offset="1"/>
    </linearGradient>
  </defs>
  <path fill="url(#lg)" d="M 3.055 0.747 L 61.289 0.747 C 62.64 0.747 63.741 1.842 63.741 3.199 L 63.741 14.649 C 63.741 16.172 63.078 17.618 61.93 18.617 L 29.366 45.857 L 61.289 45.857 C 62.64 45.857 63.741 46.935 63.741 48.293 L 63.741 61.441 C 63.741 62.793 62.64 63.895 61.289 63.895 L 3.055 63.895 C 1.701 63.895 0.602 62.793 0.602 61.441 L 0.602 50.007 C 0.602 48.481 1.264 47.038 2.416 46.039 L 34.978 18.797 L 3.055 18.797 C 1.701 18.797 0.602 17.677 0.602 16.317 L 0.602 3.199 C 0.602 1.842 1.701 0.747 3.055 0.747 Z M 104.333 -1.496 C 111.065 -1.496 117.066 0.02 122.078 2.783 C 127.087 5.552 131.106 9.572 133.875 14.581 C 136.639 19.593 138.155 25.595 138.155 32.328 C 138.155 39.063 136.639 45.064 133.875 50.075 C 131.106 55.085 127.087 59.105 122.078 61.874 C 117.066 64.637 111.065 66.153 104.333 66.153 C 97.598 66.153 91.595 64.637 86.583 61.874 C 81.574 59.105 77.555 55.085 74.785 50.075 C 72.022 45.064 70.505 39.063 70.505 32.328 C 70.505 25.595 72.022 19.593 74.785 14.581 C 77.555 9.572 81.574 5.552 86.583 2.783 C 91.595 0.02 97.598 -1.496 104.333 -1.496 Z M 104.333 16.544 C 101.11 16.544 98.283 17.226 95.943 18.489 C 93.607 19.755 91.757 21.605 90.49 23.941 C 89.227 26.282 88.545 29.109 88.545 32.328 C 88.545 35.547 89.227 38.376 90.49 40.716 C 91.757 43.054 93.607 44.902 95.943 46.169 C 98.283 47.432 101.11 48.115 104.333 48.115 C 107.551 48.115 110.378 47.432 112.718 46.169 C 115.054 44.902 116.904 43.054 118.171 40.716 C 119.434 38.376 120.117 35.547 120.117 32.328 C 120.117 29.109 119.434 26.282 118.171 23.941 C 116.904 21.605 115.054 19.755 112.718 18.489 C 110.378 17.226 107.551 16.544 104.333 16.544 Z M 176.49 -1.496 C 183.222 -1.496 189.225 0.02 194.237 2.783 C 199.247 5.552 203.265 9.572 206.034 14.581 C 208.799 19.593 210.312 25.595 210.312 32.328 C 210.312 39.063 208.799 45.064 206.034 50.075 C 203.265 55.085 199.247 59.105 194.237 61.874 C 189.225 64.637 183.222 66.153 176.49 66.153 C 169.755 66.153 163.752 64.637 158.743 61.874 C 153.731 59.105 149.715 55.085 146.946 50.075 C 144.18 45.064 142.665 39.063 142.665 32.328 C 142.665 25.595 144.18 19.593 146.946 14.581 C 149.715 9.572 153.731 5.552 158.743 2.783 C 163.752 0.02 169.755 -1.496 176.49 -1.496 Z M 176.49 16.544 C 173.269 16.544 170.441 17.226 168.1 18.489 C 165.766 19.755 163.916 21.605 162.649 23.941 C 161.385 26.282 160.706 29.109 160.706 32.328 C 160.706 35.547 161.385 38.376 162.649 40.716 C 163.916 43.054 165.766 44.902 168.1 46.169 C 170.441 47.432 173.269 48.115 176.49 48.115 C 179.709 48.115 182.537 47.432 184.878 46.169 C 187.216 44.902 189.065 43.054 190.331 40.716 C 191.593 38.376 192.275 35.547 192.275 32.328 C 192.275 29.109 191.593 26.282 190.331 23.941 C 189.065 21.605 187.216 19.755 184.878 18.489 C 182.537 17.226 179.709 16.544 176.49 16.544 Z M 280.227 3.208 L 280.227 61.441 C 280.227 62.793 279.128 63.895 277.769 63.895 L 266.327 63.895 C 264.803 63.895 263.36 63.231 262.358 62.081 L 235.118 29.522 L 235.118 61.441 C 235.118 62.793 233.996 63.895 232.638 63.895 L 219.53 63.895 C 218.172 63.895 217.068 62.793 217.068 61.441 L 217.068 3.208 C 217.068 1.85 218.172 0.749 219.53 0.749 L 230.968 0.749 C 232.494 0.749 233.936 1.414 234.938 2.568 L 262.178 35.134 L 262.178 3.208 C 262.178 1.85 263.254 0.749 264.612 0.749 L 277.769 0.749 C 279.128 0.749 280.227 1.85 280.227 3.208 Z" style="" bx:origin="0.5 0.433333"/>
</svg>