<svg width="63" height="63" viewBox="0 0 63 63" fill="none" xmlns="http://www.w3.org/2000/svg">
<path d="M14.7656 31.5002C14.7656 28.3788 15.6256 25.4549 17.1196 22.9512V12.3313H6.49971C2.28473 17.8054 0 24.4769 0 31.5002C0 38.5234 2.28473 45.1949 6.49971 50.669H17.1196V40.0491C15.6256 37.5455 14.7656 34.6215 14.7656 31.5002Z" fill="#FBBD00"/>
<path d="M31.5 48.2344L24.1172 55.6172L31.5 63C38.5234 63 45.1947 60.7153 50.6689 56.5003V45.8917H40.0602C37.5347 47.3911 34.5984 48.2344 31.5 48.2344Z" fill="#0F9D58"/>
<path d="M17.1194 40.049L6.49951 50.6689C7.33402 51.7527 8.24272 52.7906 9.22598 53.774C15.1755 59.7234 23.0859 63.0001 31.4998 63.0001V48.2344C25.3937 48.2344 20.0421 44.9466 17.1194 40.049Z" fill="#31AA52"/>
<path d="M63 31.4999C63 29.5834 62.8265 27.6634 62.4842 25.7934L62.2072 24.28H31.5V39.0456H46.4443C44.9931 41.9324 42.7617 44.2877 40.0601 45.8917L50.6687 56.5003C51.7525 55.6658 52.7904 54.7571 53.7738 53.7738C59.7234 47.8242 63 39.9138 63 31.4999Z" fill="#3C79E6"/>
<path d="M43.333 19.6669L44.6381 20.972L55.079 10.5312L53.7739 9.22618C47.8244 3.27662 39.9141 0 31.5 0L24.1172 7.38281L31.5 14.7656C35.9698 14.7656 40.1722 16.5062 43.333 19.6669Z" fill="#CF2D48"/>
<path d="M31.4999 14.7656V0C23.086 0 15.1757 3.27662 9.22598 9.22606C8.24272 10.2093 7.33402 11.2472 6.49951 12.3311L17.1194 22.9511C20.0422 18.0534 25.3939 14.7656 31.4999 14.7656Z" fill="#EB4132"/>
</svg>
