<svg width="53" height="51" viewBox="0 0 53 51" fill="none" xmlns="http://www.w3.org/2000/svg">
<path d="M24.6631 1.26549C25.3573 -0.346437 27.6427 -0.346443 28.3369 1.26548L34.2769 15.0588C34.5665 15.7311 35.2002 16.1916 35.9291 16.2592L50.8829 17.6461C52.6304 17.8082 53.3367 19.9818 52.0181 21.1401L40.7355 31.0517C40.1855 31.5349 39.9435 32.2799 40.1044 32.994L43.4064 47.6445C43.7922 49.3566 41.9432 50.6999 40.4342 49.8039L27.5211 42.1363C26.8917 41.7626 26.1083 41.7626 25.4789 42.1363L12.5658 49.8039C11.0568 50.6999 9.20778 49.3566 9.59365 47.6445L12.8956 32.994C13.0565 32.2799 12.8145 31.5349 12.2645 31.0517L0.981862 21.1401C-0.336662 19.9818 0.369586 17.8082 2.11713 17.6461L17.0709 16.2592C17.7998 16.1916 18.4335 15.7311 18.7231 15.0588L24.6631 1.26549Z" fill="#F7E461"/>
</svg>
