<svg width="35" height="34" viewBox="0 0 35 34" fill="none" xmlns="http://www.w3.org/2000/svg">
<path fill-rule="evenodd" clip-rule="evenodd" d="M17.9521 34C27.341 34 34.9521 26.3888 34.9521 17C34.9521 7.61116 27.341 0 17.9521 0C8.56331 0 0.952148 7.61116 0.952148 17C0.952148 26.3888 8.56331 34 17.9521 34ZM17.7314 5.36909H17.737C23.8657 5.36909 28.8496 10.5727 28.8496 16.968C28.8496 23.3634 23.8657 28.567 17.737 28.567C15.4764 28.567 13.3797 27.8653 11.6221 26.6503L7.34961 28.0755L8.73487 23.7665C7.40241 21.857 6.61877 19.5053 6.61877 16.968C6.61877 10.5712 11.6027 5.36909 17.7314 5.36909Z" fill="url(#paint0_linear)"/>
<path d="M24.4078 21.8703C24.1385 22.6451 23.0698 23.2877 22.2174 23.4753C21.6342 23.6019 20.8724 23.7028 18.3081 22.6195C15.0281 21.2348 12.9158 17.8385 12.7512 17.6181C12.5935 17.3978 11.4258 15.8197 11.4258 14.1877C11.4258 12.5556 12.2392 11.7609 12.567 11.4197C12.8363 11.1397 13.2813 11.0117 13.7083 11.0117C13.8464 11.0117 13.9706 11.0188 14.0822 11.0245C14.41 11.0387 14.5747 11.0586 14.7909 11.5861C15.0602 12.2471 15.7159 13.8792 15.794 14.0469C15.8736 14.2147 15.9531 14.4422 15.8415 14.6625C15.7368 14.89 15.6448 14.9909 15.4801 15.1843C15.3155 15.3776 15.1592 15.5255 14.9946 15.733C14.8439 15.9136 14.6737 16.1069 14.8635 16.441C15.0532 16.768 15.7089 17.8584 16.6744 18.7341C17.9203 19.8644 18.9304 20.2255 19.2917 20.379C19.561 20.4927 19.8819 20.4657 20.0786 20.2525C20.3283 19.9781 20.6367 19.5232 20.9506 19.0753C21.1738 18.754 21.4556 18.7142 21.7514 18.828C22.0527 18.9346 23.6474 19.7378 23.9753 19.9042C24.3031 20.0719 24.5194 20.1515 24.5989 20.2923C24.677 20.433 24.677 21.0941 24.4078 21.8703Z" fill="#59FF6A"/>
<defs>
<linearGradient id="paint0_linear" x1="4.95215" y1="7.33333" x2="28.6188" y2="28.3333" gradientUnits="userSpaceOnUse">
<stop stop-color="#91FF9C"/>
<stop offset="0.510417" stop-color="#58FF69"/>
<stop offset="1" stop-color="#61F770"/>
</linearGradient>
</defs>
</svg>
