<svg width="34" height="34" viewBox="0 0 34 34" fill="none" xmlns="http://www.w3.org/2000/svg">
<path fill-rule="evenodd" clip-rule="evenodd" d="M17 34C26.3888 34 34 26.3888 34 17C34 7.61116 26.3888 0 17 0C7.61116 0 0 7.61116 0 17C0 26.3888 7.61116 34 17 34ZM16.7793 5.36909H16.7848C22.9136 5.36909 27.8975 10.5727 27.8975 16.968C27.8975 23.3634 22.9136 28.567 16.7848 28.567C14.5242 28.567 12.4276 27.8653 10.67 26.6503L6.39746 28.0755L7.78272 23.7665C6.45026 21.857 5.66663 19.5053 5.66663 16.968C5.66663 10.5712 10.6505 5.36909 16.7793 5.36909Z" fill="url(#paint0_linear)"/>
<path d="M23.4556 21.8703C23.1864 22.6451 22.1177 23.2877 21.2652 23.4753C20.682 23.6019 19.9203 23.7028 17.356 22.6195C14.0759 21.2348 11.9637 17.8385 11.799 17.6181C11.6414 17.3978 10.4736 15.8197 10.4736 14.1877C10.4736 12.5556 11.287 11.7609 11.6149 11.4197C11.8841 11.1397 12.3292 11.0117 12.7561 11.0117C12.8942 11.0117 13.0184 11.0188 13.13 11.0245C13.4579 11.0387 13.6225 11.0586 13.8388 11.5861C14.108 12.2471 14.7638 13.8792 14.8419 14.0469C14.9214 14.2147 15.0009 14.4422 14.8893 14.6625C14.7847 14.89 14.6926 14.9909 14.528 15.1843C14.3633 15.3776 14.2071 15.5255 14.0425 15.733C13.8918 15.9136 13.7216 16.1069 13.9113 16.441C14.1011 16.768 14.7568 17.8584 15.7222 18.7341C16.9681 19.8644 17.9782 20.2255 18.3396 20.379C18.6088 20.4927 18.9297 20.4657 19.1264 20.2525C19.3762 19.9781 19.6845 19.5232 19.9984 19.0753C20.2216 18.754 20.5035 18.7142 20.7992 18.828C21.1006 18.9346 22.6953 19.7378 23.0231 19.9042C23.351 20.0719 23.5672 20.1515 23.6468 20.2923C23.7249 20.433 23.7249 21.0941 23.4556 21.8703Z" fill="#00B713"/>
<defs>
<linearGradient id="paint0_linear" x1="4" y1="7.33333" x2="27.6667" y2="28.3333" gradientUnits="userSpaceOnUse">
<stop stop-color="#91FF9C"/>
<stop offset="0.34375" stop-color="#1AE82F"/>
<stop offset="0.510417" stop-color="#0AE41F"/>
<stop offset="1" stop-color="#00B713"/>
</linearGradient>
</defs>
</svg>
